<svg xmlns="http://www.w3.org/2000/svg" xmlns:xlink="http://www.w3.org/1999/xlink" width="22" height="22" viewBox="0 0 22 22" fill="none"><path d="M8.92708 2.12413C9.62656 1.73232 10.2746 1.5 10.9992 1.5C11.725 1.5 12.373 1.73232 13.0738 2.12539C13.7519 2.5059 14.528 3.06725 15.505 3.77302L16.7684 4.68725C17.552 5.25362 18.1786 5.70697 18.6521 6.12515C19.1393 6.55841 19.5035 6.99041 19.7359 7.53166C19.9669 8.07669 20.0234 8.63427 19.992 9.27724C19.9619 9.89636 19.8476 10.6448 19.7032 11.5779L19.4395 13.2958C19.236 14.622 19.074 15.6769 18.8354 16.4994C18.5893 17.3509 18.2414 18.0252 17.6211 18.5414C17.0032 19.0563 16.2673 19.2848 15.3681 19.3941C14.4928 19.5008 13.389 19.5008 11.995 19.5008L10.0046 19.5008C8.61061 19.5008 7.50675 19.5008 6.63271 19.3941C5.73354 19.2848 4.99638 19.055 4.37852 18.5414C3.75815 18.0265 3.41155 17.3509 3.16415 16.4994C2.92555 15.6769 2.76355 14.622 2.56136 13.2958L2.29638 11.5779C2.15322 10.6448 2.03769 9.89636 2.00755 9.27599C1.97741 8.63427 2.03266 8.07669 2.26499 7.53292C2.49606 6.99041 2.8615 6.55841 3.34876 6.12641C3.82094 5.70697 4.44759 5.25362 5.23248 4.68725L6.49457 3.77302C7.47159 3.06725 8.24894 2.50465 8.92708 2.12539L8.92708 2.12413ZM11.8368 13.012C11.8412 12.8994 11.8227 12.787 11.7826 12.6817C11.7425 12.5763 11.6816 12.4801 11.6034 12.3989C11.5253 12.3176 11.4315 12.253 11.3278 12.2089C11.2241 12.1647 11.1125 12.142 10.9998 12.142C10.8871 12.142 10.7755 12.1647 10.6718 12.2089C10.568 12.253 10.4743 12.3176 10.3961 12.3989C10.318 12.4801 10.257 12.5763 10.2169 12.6817C10.1769 12.787 10.1584 12.8994 10.1628 13.012L10.1628 15.5237C10.1584 15.6363 10.1769 15.7487 10.2169 15.854C10.257 15.9594 10.318 16.0556 10.3961 16.1368C10.4743 16.218 10.568 16.2827 10.6718 16.3268C10.7755 16.371 10.8871 16.3937 10.9998 16.3937C11.1125 16.3937 11.2241 16.371 11.3278 16.3268C11.4315 16.2827 11.5253 16.218 11.6034 16.1368C11.6816 16.0556 11.7425 15.9594 11.7826 15.854C11.8227 15.7487 11.8412 15.6363 11.8368 15.5237L11.8368 13.012Z"  style="mix-blend-mode:normal" fill="#999999" ></path></svg>