<svg xmlns="http://www.w3.org/2000/svg" xmlns:xlink="http://www.w3.org/1999/xlink" width="22" height="22" viewBox="0 0 22 22" fill="none"><path d="M11 20C15.9706 20 20 15.9706 20 11C20 6.02944 15.9706 2 11 2C6.02944 2 2 6.02944 2 11C2 15.9706 6.02944 20 11 20ZM8.1875 7.625C8.80882 7.625 9.3125 8.12868 9.3125 8.75L9.3125 9.88C9.3125 10.5013 8.80882 11.005 8.1875 11.005C7.56618 11.005 7.0625 10.5013 7.0625 9.88L7.0625 8.75C7.0625 8.12868 7.56618 7.625 8.1875 7.625ZM13.8125 7.625C14.4338 7.625 14.9375 8.12868 14.9375 8.75L14.9375 9.88C14.9375 10.5013 14.4338 11.005 13.8125 11.005C13.1912 11.005 12.6875 10.5013 12.6875 9.88L12.6875 8.75C12.6875 8.12868 13.1912 7.625 13.8125 7.625Z" fill-rule="evenodd" style="mix-blend-mode:normal" fill="#999999" ></path></svg>